<svg viewBox="0 0 29 29" xmlns="http://www.w3.org/2000/svg"><path d="M24.483 17.453v-4.176c-.039-.004-.072-.011-.104-.011h-1.243c-.497 0-.995-.002-1.492 0-.458 0-.915.003-1.372.005-.114 0-.227.002-.34 0-.085 0-.096-.01-.094-.091.009-.511.015-1.022.03-1.532.007-.277.028-.554.046-.83.015-.234.041-.467.109-.692.112-.375.339-.676.627-.935.218-.195.465-.339.74-.43a4.585 4.585 0 011.278-.216c.287-.004.574-.022.86-.016.284.006.566.034.85.054.102.008.115 0 .115-.107l.006-2.364.002-1.623c0-.149 0-.148-.148-.152-.511-.014-1.022-.033-1.533-.04a13.77 13.77 0 00-1.49.061c-.6.057-1.192.15-1.774.308-.482.13-.948.3-1.386.539-.558.305-1.044.698-1.408 1.224-.165.238-.31.49-.453.742-.207.364-.36.753-.495 1.148a9.403 9.403 0 00-.198.68 6.702 6.702 0 00-.14.625c-.06.37-.111.74-.152 1.111-.086.792-.057 1.588-.061 2.383v.137c-.037.004-.066.01-.094.01l-1.503-.002h-1.393c-.039 0-.077.007-.122.012v4.182c.047.003.085.008.124.008l2.025.002h.852c.108 0 .11.003.11.114l.001 2.685v8.74c-.045.003-.084.008-.123.008H8.565l-5.102.002c-.378 0-.755.01-1.132-.003a2.334 2.334 0 01-1.171-.366 2.424 2.424 0 01-.888-.97 2.12 2.12 0 01-.246-.88c-.013-.314-.009-.628-.01-.942-.003-.52-.004-1.042-.005-1.563a2173.326 2173.326 0 01-.003-5.2v-2.436-2.625l-.001-3.297-.002-2.325V5.773L.004 3.09c0-.261-.008-.522.002-.782.017-.495.188-.938.482-1.335C.712.67.995.434 1.331.265c.256-.13.526-.218.812-.236.273-.018.548-.019.821-.02C4.087.007 5.21.008 6.332.007h4.67c.752-.001 1.503-.003 2.255-.003l2.516.002C16.942.005 18.11 0 19.28 0c.985 0 1.97.004 2.956.004.992 0 1.984-.003 2.976-.004l1.473.001c.46.003.88.136 1.268.379.398.247.688.586.894 1.002.16.326.241.671.242 1.034.002.468-.002.935-.003 1.403l-.001 1.892c-.002.708-.009 1.416-.01 2.124l-.006 4.77c0 .499-.004.997-.005 1.495l-.003 2.833v1.333l-.006 2.595-.002 2.384v2.265c-.001.381.002.762-.003 1.143a2.336 2.336 0 01-.406 1.28 2.387 2.387 0 01-.775.74c-.384.228-.8.347-1.249.347l-2.906-.002-3.748-.002c-.137 0-.137 0-.137-.137l.001-4.099.003-5.391v-1.794-.04c.003-.078.01-.086.088-.087l.902-.001 2.475-.003h1.043c.043 0 .085-.007.141-.01z" fill="#afafaf"/></svg>