<svg width="29" height="29" viewBox="0 0 29 29" xmlns="http://www.w3.org/2000/svg"><path d="M3.839 8.879l.01.103h.008l.015-.377h.044c.002-.046.002-.092.007-.137.007-.048-.024-.108.045-.14.01-.005.008-.042.008-.065.002-.048 0-.096 0-.144.007 0 .014 0 .02-.002l.014.046.03-.228.012.002.02.07c.003-.056 0-.092.007-.127.006-.037-.011-.076.04-.108.024-.015.016-.084.023-.129l.03.01.021-.172.04.053c0-.037-.003-.067 0-.095.004-.034-.017-.081.044-.087.006 0 .014-.016.013-.024-.012-.08.072-.127.057-.206l.02-.011.014.038.01-.003c0-.03-.004-.059.001-.087.003-.02.019-.036.028-.055.024-.05.066-.09.075-.147.004-.027-.005-.062.042-.059.003 0 .01-.008.01-.012.004-.115.107-.176.145-.268.02-.047.052-.085.076-.122.029-.044.054-.093.09-.135.033-.038.072-.08.095-.121.035-.064.084-.116.127-.17.059-.073.121-.146.19-.214.091-.092.178-.19.269-.283.024-.026.053-.072.075-.07.046.007.019-.078.07-.046.018-.066.077-.096.124-.134.059-.048.12-.093.179-.142a3.58 3.58 0 01.394-.28c.068-.042.14-.077.204-.125.106-.08.23-.126.347-.184.123-.06.243-.127.377-.162.046-.067.131-.046.193-.083.062-.036.14-.042.207-.072.068-.03.142-.036.208-.071.03-.017.07-.02.107-.025.036-.004.074.003.096-.038.002-.004.01-.006.016-.007.117-.021.233-.042.35-.065.05-.01.097-.026.146-.034.083-.014.166-.021.248-.033.102-.015.205-.027.306-.047.244-.048.492-.026.736-.053.44-.051.882-.038 1.323-.056.167-.007.335-.02.503-.024.339-.007.679-.01 1.019-.011.512-.003 1.026-.004 1.539-.005.592 0 1.184-.002 1.776 0 .421 0 .842.002 1.263.01.5.01 1 .017 1.498.049.21.014.422.021.632.04.152.013.306.022.454.054.12.027.246.024.363.056.08.022.158.028.237.044.106.021.209.06.314.089.08.022.162.041.242.065a4.5 4.5 0 01.221.07c.07.025.137.06.208.078.156.04.295.12.44.185.131.06.259.128.386.195.06.03.117.064.17.102.136.097.267.198.402.294.305.215.56.484.812.754.14.148.252.32.377.483.127.164.226.345.323.528.044.082.093.162.131.248.032.071.057.145.086.218.021.056.044.11.067.167.01.025.017.053.028.078.008.019.02.037.03.055.007.01.024.02.023.029-.006.084.048.15.066.227.018.074.027.155.056.22.033.073.032.144.05.215.038.162.085.322.129.483a.302.302 0 01.007.038c.027.252.07.502.074.757 0 .052.026.104.031.157.01.107.019.215.02.322.005.217-.013.435.01.65.06.587.033 1.177.045 1.766.01.593.008 1.187.007 1.78 0 .752-.004 1.503-.005 2.255 0 .588.003 1.176.002 1.764 0 .053.026.116-.043.154-.013.007-.007.05-.007.076-.001.252 0 .503-.002.755 0 .04.017.084-.032.114-.012.008-.008.044-.009.066-.004.138.007.277-.014.412-.025.154-.036.31-.055.464-.01.075-.03.148-.046.223-.008.037-.06.048-.053.097.007.041.019.096-.001.124-.05.072-.027.165-.08.233-.012.016-.009.044-.01.067-.002.051 0 .101-.044.142-.015.015-.01.05-.014.074-.005.034.008.075-.04.09-.007.001-.013.016-.012.024.015.076-.04.132-.06.197-.019.056-.052.106-.051.169 0 .004-.025.01-.041.014-.027.089-.04.188-.102.27-.015.02-.008.08-.016.082-.078.01-.036.091-.08.126-.037.03-.037.113-.075.133-.06.032-.041.096-.084.135-.036.032-.035.113-.073.134-.056.031-.051.094-.097.128a.331.331 0 00-.092.124c-.04.082-.104.144-.16.213-.058.072-.115.146-.176.216-.05.06-.105.117-.16.171-.103.1-.207.198-.31.295-.043.04-.084.081-.13.117-.104.08-.214.15-.314.235-.098.083-.209.144-.316.213-.061.04-.129.065-.19.104-.066.043-.134.084-.202.126-.007.004-.014.013-.023.015-.093.012-.17.063-.251.108-.058.031-.128.041-.19.064-.045.015-.087.035-.13.054-.035.015-.07.037-.108.047-.034.01-.076-.003-.097.043-.004.009-.03.006-.046.011-.035.01-.07.023-.105.034-.015.005-.031.014-.047.012-.1-.009-.195.034-.277.071-.092.041-.194.018-.277.075-.007.005-.017.012-.025.01-.16-.018-.306.082-.467.065-.029-.004-.06.008-.087.001-.025-.005-.017.08-.055.018-.142.046-.291.027-.437.04-.04.004-.084-.014-.116.031-.01.012-.044.007-.067.007-.228.005-.456.007-.684.016-.03.001-.067-.025-.094.012-.032-.024-.06-.01-.091.007-.013.008-.045-.021-.062-.015-.172.06-.352.027-.528.037-.182.01-.366.004-.55.005l-1.382.004h-2.993l-2.307-.006c-.038 0-.072.003-.105-.032-.017-.017-.063-.008-.095-.008-.278-.005-.556-.013-.834-.01-.057.001-.084-.048-.137-.044-.055.005-.111 0-.167-.003-.056-.002-.116.008-.166-.01-.064-.022-.126-.044-.195-.045-.036 0-.072.003-.107-.003-.03-.004-.06-.02-.089-.027a.666.666 0 00-.074-.015c-.075-.01-.157.015-.221-.05-.01-.01-.038-.004-.058-.006-.058-.005-.123.015-.167-.046 0-.002-.006-.001-.009-.002-.086-.02-.172-.038-.258-.06-.033-.008-.064-.024-.096-.035-.012-.005-.023-.01-.036-.012-.049-.008-.095 0-.141-.044-.03-.029-.091-.045-.137-.055-.09-.02-.163-.065-.243-.102-.06-.028-.132-.034-.187-.069-.084-.052-.181-.073-.264-.132-.063-.044-.139-.076-.207-.117a5.409 5.409 0 01-.397-.257c-.084-.06-.167-.125-.256-.182-.087-.055-.156-.14-.234-.211-.077-.07-.157-.135-.23-.209-.07-.07-.132-.15-.2-.223-.095-.104-.197-.2-.266-.325-.018-.034-.057-.056-.08-.089-.086-.125-.17-.252-.255-.378-.097-.143-.166-.302-.25-.452-.055-.098-.09-.207-.134-.312-.078-.19-.141-.385-.211-.578a1.165 1.165 0 01-.07-.298c-.003-.042-.032-.082-.044-.124-.014-.046-.022-.092-.032-.139-.007-.031-.01-.064-.02-.094-.044-.144-.05-.292-.06-.44-.005-.068-.025-.136-.04-.203-.086-.376-.053-.758-.064-1.138-.003-.086.012-.172-.033-.256-.024-.045-.014-.107-.016-.162-.008-.206-.015-.412-.02-.617-.001-.051.012-.103.012-.155 0-.051-.008-.102-.01-.154-.002-.071-.012-.145-.001-.214.034-.222.014-.444.012-.665-.003-.408-.021-.816-.028-1.224a88.398 88.398 0 01-.009-1.19c0-.154.009-.307.009-.46 0-.324-.005-.648-.006-.971 0-.49 0-.98.002-1.47 0-.072-.007-.146.034-.214.011-.017.004-.045.004-.068.005-.313.012-.626.012-.94 0-.068.052-.115.046-.185-.008-.078 0-.157.001-.236.001-.076-.005-.152.005-.226.006-.043.047-.077.044-.128-.002-.052.003-.104.004-.157V8.88l.019-.001zm25.198 5.598c-.002 0-.003 0-.005-.002v-.866c-.008-2.366-.015-4.731-.026-7.097-.001-.305-.017-.61-.039-.914-.014-.189-.05-.376-.082-.563a3.32 3.32 0 00-.067-.296c-.024-.09-.054-.18-.083-.27-.056-.177-.103-.358-.174-.529a6.378 6.378 0 00-.455-.911 6.85 6.85 0 00-.455-.662 6.25 6.25 0 00-1.334-1.251 6.343 6.343 0 00-.81-.473c-.15-.074-.305-.134-.459-.196a4.987 4.987 0 00-.311-.117c-.096-.032-.194-.057-.292-.082-.154-.04-.308-.083-.464-.114a5.653 5.653 0 00-.454-.071c-.208-.025-.416-.052-.624-.061-.322-.015-.643-.018-.965-.022-.584-.007-1.168-.012-1.752-.016-.482-.004-.965-.005-1.447-.006l-2.232-.003-1.915.003c-.65 0-1.301-.003-1.952-.003-.425 0-.85.002-1.274.005-.439.003-.878.008-1.317.013-1.19.011-2.382.021-3.573.037-.278.003-.555.025-.833.043-.08.005-.16.027-.24.04-.086.014-.173.025-.259.04-.125.024-.249.049-.373.075-.092.02-.184.036-.273.065-.186.06-.369.13-.554.192a4.516 4.516 0 00-.736.343 5.84 5.84 0 00-1.012.703 6.41 6.41 0 00-1.03 1.114 6.479 6.479 0 00-.533.89c-.139.275-.252.56-.344.853a7.74 7.74 0 00-.177.723 4.963 4.963 0 00-.105.937C0 6.448 0 6.868 0 7.288l.02 15.466a8.098 8.098 0 00.065.95c.021.15.053.296.082.443.022.108.045.217.074.323.02.07.05.138.074.207.021.06.038.123.059.183l.101.28c.02.053.044.105.065.157.04.097.085.19.125.287.055.133.131.259.209.38.135.213.274.423.423.626.099.136.214.26.328.384.1.11.209.212.314.317.067.068.131.14.204.2.125.105.255.205.385.304.104.078.206.161.319.222.114.061.215.142.33.2.076.037.15.075.224.119.088.053.192.077.284.124.073.037.14.082.223.098.068.013.132.045.198.069.082.03.155.085.247.09.012.001.027.001.038.008.084.05.178.065.27.086.056.012.109.039.165.048.075.013.158-.014.221.052.005.005.019.002.029.002.052.002.104.001.156.007.03.002.06.016.09.024.022.005.043.013.064.017.154.028.315-.013.464.05.006.003.014 0 .02 0 .095.003.19.007.285.007l1.743.002 7.501-.002c2.396-.001 4.792-.002 7.187-.005.25 0 .499-.006.747-.026.245-.02.487-.061.731-.093.013-.002.03-.004.036-.012.036-.045.087-.031.133-.039.025-.004.06.004.076-.01.05-.044.109-.034.165-.044.029-.006.06-.005.086-.016.097-.042.196-.078.3-.096.012-.002.024-.01.035-.014.07-.03.13-.083.211-.082.012 0 .024-.01.036-.015.058-.029.114-.065.175-.086.112-.036.215-.091.319-.146.097-.05.192-.106.287-.16.127-.07.252-.144.37-.226.143-.099.293-.188.417-.312.016-.016.028-.039.046-.046.112-.048.185-.143.27-.222.096-.09.195-.176.283-.274.128-.14.261-.275.371-.433.077-.11.178-.205.249-.318.053-.085.115-.163.164-.25.054-.094.114-.184.16-.281.04-.084.081-.165.13-.244.03-.05.066-.104.075-.16.01-.066.082-.106.063-.178a.539.539 0 00.105-.228c.003-.015.013-.028.019-.043.026-.066.056-.13.076-.198.025-.088.04-.18.06-.269.002-.003.002-.007.005-.009a.136.136 0 00.043-.133c-.011-.06.045-.091.05-.141.007-.083-.002-.169.05-.241-.01-.125.044-.24.057-.36.007-.069.004-.138.01-.207.009-.094.03-.187.032-.28.008-.45.015-.9.015-1.349 0-1.169-.004-2.338-.006-3.507v-3.788z" fill="#afafaf"/><path d="M21.507 8.782zm0 0c-.005.071-.003.145-.017.215a.638.638 0 01-.092.258c-.025.035-.034.082-.053.123a.971.971 0 01-.235.303 1.31 1.31 0 01-.324.222.783.783 0 01-.267.09c-.11.01-.216.049-.329.03-.106-.02-.216-.021-.317-.054-.107-.034-.208-.093-.308-.146a1.12 1.12 0 01-.46-.488 1.325 1.325 0 01-.137-.693 1.24 1.24 0 01.12-.475c.095-.198.236-.368.426-.487.088-.055.178-.11.273-.15.07-.029.15-.038.227-.05a1.38 1.38 0 01.445-.004c.192.03.37.107.523.22.112.084.233.167.298.302.033.07.076.133.113.2.08.145.112.302.111.466v.118h.003zM18.77 11.09c.014-.017.019-.024.025-.036.026.04.042.089.076.114.047.035.061.073.061.127l.027-.038c.007.107.138.136.12.257l.037-.032c.016.03 0 .078.057.087.028.005-.02.08.046.078l.031.125.024-.04c-.011.081.08.11.067.185.08.049.062.165.146.21.004.003.005.012.006.019.007.039.002.104.021.112.056.023.024.067.04.096.015.026.04.048.05.075.01.031-.003.068.039.09.012.005.011.041.012.064.002.042 0 .084 0 .138l.047-.05.013.123.03-.019c.003.012.005.023.01.032.02.05-.014.118.051.158.013.007.007.05.007.075.001.066 0 .13.012.2l.039-.072v.25l.016.003.025-.062.023.381.012.002.022-.058c.026.548.01 1.08-.006 1.611l-.012-.15c-.036.154.005.312-.043.47l-.021-.04-.013-.001c0 .068.002.136 0 .204-.002.032.015.072-.034.09-.01.005-.008.037-.012.056-.013.052.017.116-.048.154-.01.005-.003.037-.005.057l-.014.103-.034-.072c-.002.044-.001.08-.007.113-.005.038.018.09-.045.103-.002 0-.005.006-.005.008.018.075-.078.116-.051.195h-.055c0 .037.003.07 0 .102-.004.028.014.07-.04.072-.004 0-.011.018-.01.026.01.07-.041.118-.063.176l-.04-.01-.01.136a1.505 1.505 0 00-.035-.02.498.498 0 00-.012.02c-.016.032.018.08-.044.098-.022.007.013.081-.05.084-.003 0-.009.011-.008.016.015.073-.076.107-.065.178-.038-.008-.028.058-.07.046-.004-.002-.012.005-.015.01-.023.047-.045.094-.069.14-.03.058-.083.097-.12.148-.01.013-.025.026-.027.04-.007.05-.052.069-.076.105-.021.033-.053.058-.079.087-.029.032-.053.067-.088.095-.02.015-.026.047-.037.07l-.017-.029c.008.074-.065.096-.094.146-.01.017-.035.025-.053.036l-.015-.028c-.009.1-.087.137-.144.19-.004.004-.016 0-.018.003-.04.064-.06.08-.145.128-.026.015-.02.069-.069.06-.026.065-.094.09-.139.138-.047.05-.121.071-.16.118-.068.082-.174.103-.244.182-.053.059-.141.085-.213.126-.064.036-.126.073-.19.107-.039.02-.08.034-.12.055-.025.013-.045.037-.072.049-.084.037-.172.065-.253.108-.087.046-.183.067-.27.11-.096.047-.203.066-.298.11-.083.037-.185.012-.256.08-.004.005-.018 0-.027.001-.084.01-.17.013-.247.055a.095.095 0 01-.048.008.836.836 0 00-.236.026c-.077.018-.158.023-.238.032-.081.009-.164.01-.244.023a.698.698 0 01-.24-.004c-.036-.006-.076.027-.117.004-.02.04-.052-.039-.078.006-.004.007-.058-.023-.07-.013-.033.027-.055-.017-.087 0-.023.013-.06.002-.091 0-.11-.009-.224-.005-.33-.03-.108-.024-.22-.022-.324-.05-.092-.024-.187-.033-.276-.058-.073-.021-.155-.019-.218-.055-.072-.042-.16-.024-.228-.08-.039-.032-.105-.023-.157-.05-.06-.033-.122-.071-.197-.073-.021 0-.041-.028-.064-.04-.024-.011-.06.004-.073-.034-.003-.008-.02-.014-.032-.016-.113-.017-.2-.083-.292-.144-.037-.025-.094-.015-.117-.066-.068.003-.105-.058-.164-.077a.53.53 0 01-.158-.093c-.075-.06-.155-.114-.233-.168a1.617 1.617 0 01-.266-.227c-.019-.02-.053-.024-.074-.042a4.53 4.53 0 01-.224-.202c-.08-.079-.157-.163-.235-.244-.004-.005-.016-.004-.017-.008-.026-.081-.106-.116-.153-.179-.044-.058-.09-.115-.134-.174-.096-.128-.199-.254-.287-.389-.057-.087-.125-.17-.173-.261-.064-.12-.115-.247-.174-.37-.024-.05-.065-.093-.079-.145-.018-.068-.079-.119-.076-.196.001-.021-.02-.044-.033-.065-.004-.008-.015-.013-.017-.02-.017-.073-.024-.15-.053-.216-.038-.082-.036-.179-.095-.252a.056.056 0 01-.01-.028c-.016-.114-.063-.222-.059-.34.001-.037.013-.078-.036-.1-.01-.006-.007-.038-.01-.057l-.05-.329a.477.477 0 01-.004-.068c0-.397 0-.793.002-1.19 0-.046-.018-.098.04-.131.013-.008.01-.05.01-.075-.001-.147.031-.29.07-.43.011-.038.024-.076.027-.114.003-.048.008-.092.043-.128.006-.007.012-.018.012-.026-.002-.124.07-.227.095-.344.016-.075.08-.136.073-.22.068-.097.107-.208.149-.317.07-.04.055-.123.09-.18.066-.103.118-.213.19-.313.045-.06.083-.13.126-.193.09-.131.18-.262.28-.385.091-.115.194-.221.293-.33.054-.06.099-.137.165-.171.07-.035.092-.104.152-.143.06-.038.105-.097.162-.14.097-.07.187-.148.285-.216.11-.076.22-.15.331-.223.17-.113.348-.206.532-.293.143-.068.29-.127.433-.197.07-.034.149-.047.224-.069l.472-.135c.031-.01.064-.01.096-.017l.126-.031c.021-.005.043-.015.064-.018.141-.016.282-.04.423-.044.303-.01.606-.019.909-.012.194.004.387.032.58.06.11.016.217.055.326.083.078.02.156.037.233.06.15.046.3.093.447.145.098.035.193.078.288.121.216.1.432.201.633.332.11.071.211.157.336.204.127.155.32.232.444.393.06.079.163.122.23.197.065.075.15.134.206.211.043.059.094.11.137.167.026.034.053.061.052.117zm-2.63 12.334c.036-.013.075-.041.09-.032.054.033.102.008.152.002.02-.002.045.001.063.011.02.012.028.007.048-.005.043-.028.086.016.123.015.042-.001.084-.04.133-.02.006.002.01.012.015.012.013 0 .026 0 .04-.003.024-.005.048-.015.072-.015.373-.004.747-.007 1.12-.012.18-.003.36-.01.54-.019.173-.008.345-.021.516-.032.11-.007.221-.01.33-.023.206-.024.41-.054.615-.082.032-.004.07.003.096-.012.104-.058.227-.048.334-.094.058-.025.133.004.186-.052.012-.013.043-.008.066-.012.019-.003.039-.004.055-.012.05-.024.094-.057.145-.076.087-.032.175-.058.258-.103.07-.038.145-.07.216-.107a3.68 3.68 0 001.35-1.311c.069-.118.133-.236.184-.36.044-.104.085-.211.123-.319.036-.106.073-.21.092-.319.003-.016.003-.034.012-.046a.54.54 0 00.08-.246c.018-.138.049-.274.065-.411.008-.062.03-.122.037-.183.008-.068.003-.138.005-.206.002-.068.003-.136.007-.204 0-.026 0-.058.014-.074.036-.04.027-.085.027-.129l.013-1.21c0-.026-.005-.058.008-.075.032-.045.044-.084.008-.131-.005-.007.001-.023.003-.035.005-.042.017-.083.017-.124.001-.538.002-1.077.001-1.615-.002-1.176-.002-2.352-.008-3.527 0-.192.006-.384-.028-.578-.034-.197-.015-.403-.024-.605-.017-.384.018-.769-.043-1.153-.033-.201-.01-.41-.061-.61-.023-.094-.006-.19-.045-.286-.031-.077-.017-.171-.062-.252-.015-.029 0-.072-.008-.107-.008-.03-.036-.057-.043-.088-.014-.065-.037-.128-.051-.192-.02-.08-.082-.15-.07-.239.002-.007-.011-.015-.015-.023a21.658 21.658 0 01-.132-.26c-.047-.094-.09-.192-.14-.284a1.87 1.87 0 00-.128-.199c-.07-.097-.135-.198-.217-.283-.133-.14-.262-.286-.413-.41a3.67 3.67 0 00-.665-.446 4.931 4.931 0 00-1.573-.466 13.58 13.58 0 00-.846-.074c-.316-.02-.633-.034-.95-.042-.349-.01-.699-.011-1.049-.014l-1.496-.006c-.313-.002-.625-.004-.938-.003-.116 0-.232.007-.349.009l-.47.003c-.37 0-.737 0-1.106.002-.357.002-.715.004-1.072.013-.372.01-.743.027-1.115.043-.288.013-.575.026-.862.062a7.561 7.561 0 00-.872.16 4.275 4.275 0 00-.684.241c-.188.083-.37.187-.54.303a3.2 3.2 0 00-.656.582c-.1.12-.201.237-.292.362-.039.053-.074.11-.11.164-.052.082-.086.176-.13.263a2.02 2.02 0 00-.142.334c-.015.051-.062.09-.054.15-.07.076-.06.18-.095.27-.033.085-.04.182-.058.273-.001.01-.002.021-.008.028-.047.063-.04.136-.043.207-.002.029.002.07-.015.084-.031.028-.024.059-.026.09-.008.104.002.213-.026.311a1.027 1.027 0 00-.034.26c-.001.072.002.144-.002.216-.012.176-.027.35-.038.526-.004.058-.003.118-.004.176l-.016 1.12a12.71 12.71 0 01-.007.28c-.002.061-.012.122-.011.184 0 .094.017.19.008.283-.013.136-.03.27.005.404.003.009-.001.02-.003.03-.024.146-.025.293.002.44.01.054.022.119.002.164-.037.081.022.16-.014.235.038.037-.002.079.007.117.01.04.023.08-.023.11-.004.002 0 .028.007.035.035.031.022.07.022.107.001.249 0 .497.002.746l.019 2.453.002.324c0 .108.007.216 0 .324-.005.103.042.204.01.308-.002.005 0 .013.004.018.04.066.027.14.028.21.003.213.002.426.004.639 0 .016-.005.041.003.048.072.055.044.135.054.205.017.124.029.249.046.373.004.03.024.054.002.089-.007.01.031.045.038.07.02.082.031.165.052.246.036.134.059.271.113.401.056.134.1.273.16.405.068.15.133.304.227.437.153.215.31.428.5.614.165.162.338.312.53.44.128.086.256.173.406.224.074.025.14.072.212.104.046.022.107.023.142.055.06.053.14.041.204.082.051.033.12.042.181.055.066.014.132.028.197.048.123.037.253.05.381.072.023.004.049-.001.068.008.138.069.295.016.439.072.074.028.166.009.25.011.1.004.198.017.295.008.099-.01.193.046.29.01.01-.004.025.005.037.01.02.006.039.019.058.02h.213l1.376.01c.148.002.295 0 .443.004.148.005.298-.027.444.023.004.002.011-.003.017-.004.04-.007.08-.018.122-.02.081-.003.163-.002.245-.001.083 0 .166-.008.246.005.08.014.156-.017.235-.005.012.002.03-.006.038 0 .042.034.084.01.127.01.045-.002.09.011.135.015.059.004.117-.02.174-.02.253-.006.507-.003.761-.002.04 0 .086.024.12.012a.218.218 0 01.126-.001c.043.008.09-.01.136-.012.016 0 .043.027.048.023.045-.04.086-.03.127.004a.219.219 0 01.192-.005c.04-.038.077-.034.117 0 .007.007.03.008.036.002.053-.052.1-.019.137.008z" fill="#afafaf"/><g><path d="M17.054 11.885c.032.086.032.086.147.17.007.004.011.013.015.022.008.014.01.035.021.043.12.091.162.246.281.339.02.015.018.056.035.078.078.098.125.211.185.318.055.096.094.2.143.297.012.022.013.049.02.074.007.024-.01.063.041.06.004-.001.014.032.015.05a.912.912 0 00.088.33c.01.023.012.05.014.077.004.058.006.117.009.176l.034-.083.012.003v.116a11.329 11.329 0 01.007.236l.003.118.001.118.001.117-.001.118-.002.118a3.712 3.712 0 01-.016.235c-.003.035.003.078-.015.104-.024.036-.026.072-.027.11-.001.04.004.08-.004.118-.007.03-.035.055-.043.084-.01.037-.003.079-.013.116-.006.024-.033.04-.043.063a.684.684 0 00-.034.107c-.01.037-.03.08-.02.113.013.052-.044.047-.048.08l-.014.13-.034-.05c-.024.07-.03.15-.074.197-.03.033-.027.087-.04.09-.07.016-.045.093-.09.127a.17.17 0 00-.069.12c-.002.03-.05.052-.071.086-.029.046-.07.08-.087.136-.008.024-.05.049-.073.077-.034.037-.075.064-.086.123-.004.024-.046.05-.07.069-.088.071-.153.17-.245.229-.068.043-.128.098-.186.148-.06.051-.15.066-.188.151-.012.029-.076.03-.104.058-.047.044-.11.052-.16.091-.047.037-.114.049-.167.08-.114.067-.237.11-.358.161-.05.021-.109.02-.148.045-.087.057-.199.02-.279.088-.01.01-.03.009-.045.01-.042.004-.09-.005-.123.013-.028.015-.063.002-.086.033-.008.01-.04.003-.062.004l-.222.006c-.038.002-.095-.009-.111.012-.027.033-.07-.038-.077.021-.031-.054-.093.029-.124-.027-.032.044-.066-.014-.093 0-.033.018-.06-.002-.09-.002l-.117-.002-.117-.004c-.03 0-.064.007-.087-.005-.094-.049-.2-.035-.297-.064-.037-.011-.074-.024-.111-.032-.037-.01-.077-.008-.105-.041-.005-.006-.018-.008-.027-.01-.155-.021-.29-.092-.433-.15-.076-.03-.143-.074-.215-.11a3.586 3.586 0 01-.211-.113 1.382 1.382 0 01-.253-.18c-.05-.048-.118-.078-.172-.127a4.222 4.222 0 01-.402-.398c-.079-.093-.159-.185-.227-.286l-.08-.116c-.06-.092-.114-.189-.17-.284-.045-.075-.069-.156-.11-.229-.03-.056-.021-.134-.086-.172-.005-.002-.009-.012-.007-.018.016-.08-.045-.137-.06-.208-.016-.07-.06-.134-.05-.21-.073-.068-.042-.158-.053-.238-.004-.026.006-.056-.03-.074-.012-.005-.012-.041-.012-.064l-.003-.963c0-.016-.003-.04.006-.048.055-.05.037-.114.04-.174.004-.05-.001-.102.038-.144a.06.06 0 00.013-.046c-.02-.095.031-.177.062-.255.022-.056.043-.106.05-.166.002-.022.034-.038.046-.06.012-.022-.011-.062.036-.068.004-.001.011-.017.01-.025-.008-.077.052-.13.068-.201.015-.07.08-.128.124-.192.006-.007.017-.012.019-.02.024-.093.105-.151.147-.232.046-.087.11-.16.172-.232.04-.047.084-.091.123-.14.117-.15.279-.254.408-.392.03-.033.076-.04.111-.076.06-.061.153-.084.21-.154.154-.054.271-.184.437-.214.091-.078.212-.087.316-.136.077-.036.163-.055.246-.075.128-.031.258-.058.387-.085a.507.507 0 01.105-.014l.91-.002c.025 0 .05.01.075.016.034.008.068.025.101.025.121-.002.233.041.347.067.11.024.223.052.318.107.06.034.13.036.185.083.047.04.122.043.18.07.065.03.126.069.186.107.075.047.147.098.221.146.01.006.029.002.035.01.058.08.16.105.224.182.053.065.127.113.193.167.013.009.033.01.056.018z" fill="#afafaf"/></g></svg>