<svg viewBox="0 0 147 76" xmlns="http://www.w3.org/2000/svg"><path d="M130.47 56.353c1.997 0 3.136-1.764 3.857-4.11h.742l-.372 5.017h-14.305v-.627c1.764 0 2.182-1.208 2.182-2.672v-9.637c0-1.465-.418-2.672-2.182-2.672v-.65h8.29v.65c-1.765 0-2.182 1.207-2.182 2.672v12.029h3.971zm-66.34-4.644h4.877l-2.578-5.852zm.906 5.55h-5.713v-.649c1.765 0 2.368-1.254 2.926-2.671l5.085-12.936h1.092l5.62 12.936c.697 1.486.976 2.671 2.742 2.671v.65h-8.013v-.65c1.765 0 1.927-.837 1.208-2.671l-.007-.015a2.17 2.17 0 00-1.982-1.286h-4.235s-.233.58-.511 1.3c-.675 1.905.022 2.672 1.788 2.672zm-.098 17.7h.136v.152h-3.3v-.152h.177a.785.785 0 00.785-.785v-2a.495.495 0 00-.496-.494h-.465v-.131l2.378-1.671v4.296c0 .433.35.785.785.785zm49.927-22.716h.743l-.372 5.017H100.93v-.627c1.765 0 2.184-1.208 2.184-2.672v-9.637c0-1.465-.42-2.672-2.184-2.672v-.65h13.47l.371 5.017h-.719c-.743-2.322-1.881-4.088-3.878-4.088h-3.135v6.736h.3c1.999 0 3.3 0 3.508-2.903h.627v6.735h-.627c-.209-2.904-1.51-2.904-3.507-2.904h-.301v6.758h3.97c1.998 0 3.113-1.764 3.856-4.11zm29.878-7.92v9.638c0 1.464.418 2.672 2.183 2.672v.627h-8.315v-.627c1.79 0 2.184-1.208 2.184-2.672v-9.637c0-1.465-.395-2.672-2.184-2.672v-.65h8.315v.65zm-74.97 28.408c-.239-.22-.708-.507-1.159-.768a1.853 1.853 0 00-.41.699c-.232.708-.06 1.488.283 1.933.345.444 1.213.562 1.63-.041zm-1.272-3.098c.036.236.058.74.888 1.257.16.1.313.184.461.262.224-.33.494-.938.288-1.8 0 0-.253-.931-1.002-.79zm1.57 1.633c.626.318 1.112.533 1.382 1.143.364.819.031 2.398-1.6 2.803-1.628.405-2.682-.434-2.843-1.376-.149-.87.537-1.714 1.352-2.018l-.225-.126c-.444-.251-.75-.675-.854-1.065-.136-.509-.04-.91.108-1.196.388-.747 1.17-1.038 1.654-1.132.678-.132 1.812.061 2.146.85.333.79-.102 1.437-.71 1.863a4.014 4.014 0 01-.41.254zm21.315-30.263h5.295v.65c-1.788 0-2.067.673-2.067 2.67V57.26h-1.417L82.513 43.766v10.195c0 1.975.559 2.672 2.324 2.672v.627h-5.296v-.627c1.765 0 2.044-.697 2.044-2.672v-9.637c0-1.465-.279-2.672-2.044-2.672v-.65h6.178l7.989 9.94v-6.618c0-1.998-.558-2.672-2.322-2.672zM76.426 72.73c-.24-.22-.708-.507-1.16-.768a1.876 1.876 0 00-.41.699c-.232.708-.06 1.488.285 1.933.343.444 1.212.562 1.63-.041zm-1.273-3.098c.036.236.059.74.888 1.257.162.1.314.184.462.262.224-.33.493-.938.287-1.8 0 0-.253-.931-1.001-.79zm1.57 1.633c.626.318 1.112.533 1.383 1.143.365.819.03 2.398-1.6 2.803-1.629.405-2.681-.434-2.844-1.376-.149-.87.537-1.714 1.352-2.018l-.225-.126c-.444-.251-.75-.675-.853-1.065-.136-.509-.041-.91.107-1.196.39-.747 1.172-1.038 1.653-1.132.679-.132 1.812.061 2.147.85.334.79-.102 1.437-.709 1.863a3.925 3.925 0 01-.411.254zm3.024-47.407c-.514-.629-1.262-1.537-1.503-1.866-.35-.476-.247-.667-.241-.985.018-1.054.028-1.588-.446-1.724-.2-.018-.399-.038-.596-.057.017.544.038 1.952.038 2.324 0 1.256.215 1.502.388 1.765.368.556 1.98.523 2.36.543zm9.614 1.543a.593.593 0 10.594-.593zm.594-2.763a.593.593 0 10-.594-.593zm.591 6.12a.593.593 0 10-.591.593zm1.722-1.68a.593.593 0 10.593-.593zm0-3.357a.593.593 0 10.593-.594zm2.907 1.68a.593.593 0 10.593-.593zM99.119 5.18c-.089.107-.314.149-.88.28-.895.207-2.29.5-3.337 1.904-1.15 1.54-2.98 4.93-3.907 6.611-.105.193-.661 1.286-1.6 2.274a10.178 10.178 0 01-7.481 3.266c-.855 0-1.413-.036-2.256-.09.022.626-.024 1.553.078 1.993.164.7 1.425 2.028 1.71 2.202.436.264 1.38.114 1.823.688l.156.243c2.443-.083 4.81-.17 5.22-.187.25-.31.605-.524 1.011-.6v-.079a1.668 1.668 0 01-1.38-1.64 1.68 1.68 0 113.356 0c0 .23-.05.448-.136.648l.036.02c.305-.405.783-.67 1.33-.67.926 0 1.677.752 1.677 1.679 0 .222-.047.432-.126.625l.043.025a1.658 1.658 0 011.312-.647 1.678 1.678 0 110 3.355 1.66 1.66 0 01-1.3-.629l-.047.028c.074.187.118.387.118.6 0 .926-.75 1.677-1.678 1.677-.51 0-.961-.231-1.267-.591l-.062.038c.062.174.1.36.1.556a1.677 1.677 0 01-3.356 0c0-.824.597-1.496 1.38-1.638v-.074a1.678 1.678 0 01-1.1-.725c-.645-.023-3.202-.117-5.688-.2a2.408 2.408 0 01-1.244.397c-.74.023-1.45-.25-1.808-.414-.834.759-2.477.046-2.552-.116-1.244-.001-3.737-.003-6.28-.007v.394s.036.915-.732 1.419c-.307-.576-.814-.89-1.204-.962-.114-.02-.35-.004-.388.222-.035.21.191.263.198.265.237.088.661.26.724.78.078.664-.767 1.816-2.052 2.061l-.005.001-.005.001h-.007l-.005-.002c-1.285-.245-2.13-1.397-2.052-2.061.063-.52.487-.692.726-.78.006-.002.232-.056.196-.265-.037-.226-.274-.241-.388-.222-.39.072-.897.386-1.202.962-.769-.504-.734-1.42-.734-1.42v-.401l-.733-.004c-.238-.004-.744-.386-.744-.386v-.47l.07-.052c.147-.106.49-.338.674-.341.21-.004 9.721-.015 13.258-.018-.305-.576-1.522-2.522-1.717-2.842-.148-.243-.226-.448-.163-.658.109-.364.535-.261.549-.553.052-1.088-.134-1.48-.28-1.62-2.511-.279-4.69-.54-6.534-.387-.823.07-1.943.26-3.373.712-.14-.52-.461-1.457-1.066-1.968l.031-.014c-8.655 2.553-16.969 8.438-20.558 11.807-1.497 1.404-2.59 2.005-2.672 1.933-.026-.022.004-.171.121-.439.024-.056.057-.126.102-.213a8.55 8.55 0 01.435-.752l.001-.003.002-.002c.12-.184.366-.524.524-.744.23.14.477.307.725.505a1.695 1.695 0 00-.22-1.145l1.164-1.356c.306.168.68.4 1.053.694a1.884 1.884 0 00-.363-1.42c.457-.464.932-.918 1.425-1.364.342.215.747.505 1.129.87a2.047 2.047 0 00-.265-1.628c.168-.144 1.269-1.057 1.53-1.267l.027-.004c.367.22.833.536 1.268.952a2.267 2.267 0 00-.332-1.667c.018-.014 1.069-.82 1.585-1.185l.016.018h.002c.258.278.624.728.928 1.315a2.446 2.446 0 00.154-2.094c.397-.268 1.5-.99 1.626-1.074.252.347.598.885.86 1.525a2.633 2.633 0 00.281-2.252c.53-.329 1.067-.65 1.605-.962.337.431.723 1.018.975 1.692a2.824 2.824 0 00.284-2.406 89.35 89.35 0 011.696-.913c.318.47.71 1.154.92 1.93a2.989 2.989 0 00.444-2.631c.278-.14 1.426-.707 1.702-.842l.003.004c.02.026.793 1.052 1.123 2.363.416-.543.665-1.22.665-1.958 0-.405-.078-.79-.217-1.147.173-.08 3.282-1.438 3.396-1.487 3.254-1.48 5.772-2.975 9.646-4.557 2.377-.972 5.814-1.728 7.27-2.143 5.338-1.517 7.437-2.994 7.437-2.994l-.002-.006a2.1 2.1 0 01-1.688-2.06c0-.08.01-.16.02-.24l.07-.026c.343.353.758.635 1.223.822a6.5 6.5 0 00.446.149c.398.1 1.12.221 2.236.203 1.556-.027 2.382.154 3.025.576.381.248.642.669.642 1.157 0 .249-.072.48-.189.683zM84.017 72.645c0-.776-.138-1.464-.425-1.89l1.897 1.89c0 1.476-1.2 2.672-2.681 2.672a2.673 2.673 0 110-5.345l.453.452a.849.849 0 00-.453-.126c-.863 0-1.205 1.05-1.205 2.347 0 1.293.397 2.347 1.205 2.347zm-.756-2.221c.127.078.237.19.331.33zM29.499 47.63c2.23 1.207 4.878 2.414 4.344 5.667-.488 3.111-4.088 4.39-7.107 4.203a11.177 11.177 0 01-2.838-.542c-.247-.084-.726-.303-1.147-.5a.648.648 0 00-.918.492l-.02.309h-.71l.796-5.773h.81s-.279 1.98.529 3.208c.915 1.386 1.814 1.813 3.59 1.97 2.086.184 3.392-.906 3.624-2.136.348-1.975-1.278-2.695-3.786-3.973-2.298-1.207-5.224-2.53-5.063-5.62.21-3.645 3.787-4.227 6.155-4.063 2.555.208 3.39 1.277 3.716-.047h.465l.37 5.225h-.72c-.626-2.833-1.625-4.133-3.83-4.343-1.441-.14-2.858.557-2.928 1.952-.116 1.88 2.904 2.972 4.668 3.97zM9.684 51.709l-2.578-5.852-2.299 5.852zm7.78 4.901v.65H9.45v-.65c1.766 0 1.929-.837 1.208-2.671a2.196 2.196 0 00-2.004-1.301h-4.22s-.232.58-.511 1.3c-.673 1.905.024 2.672 1.789 2.672v.65H0v-.65c1.765 0 2.368-1.254 2.926-2.671l5.086-12.936h1.092l5.62 12.936zm36.19-2.416c.79 1.277 1.718 2.439 3.368 2.439v.627h-8.757v-.627c1.766 0 1.674-1.139.953-2.323l-3.344-5.434-2.114 1.973v3.112c0 1.464.419 2.672 2.183 2.672v.627h-8.292v-.627c1.766 0 2.16-1.208 2.16-2.672v-9.637c0-1.465-.394-2.672-2.16-2.672v-.65h8.292v.65c-1.764 0-2.183 1.207-2.183 2.672v5.156l5.783-5.272c1.324-1.209 1.37-2.556-.417-2.556v-.65h6.2v.65c-1.764 0-3.67 1.88-4.552 2.672-.883.766-2.043 1.88-2.043 1.88l4.923 7.99zm4.848-33.786a32.163 32.163 0 011.997-1.269c.061.062.673.69.983 1.66-.607.292-1.25.625-1.924.998-.26-.485-.624-1.049-1.055-1.39zm5.734-.773c-.612.22-1.273.486-1.982.803-.204-.572-.535-1.31-.991-1.73.668-.364 1.321-.69 1.952-.979a3.48 3.48 0 011.015 1.877l.006.03zM51.21 27.327c-.022-.025.038-.127.135-.263l.012-.02a34.482 34.482 0 011.641-1.877c.16.16.33.354.49.583-.595.444-1.212.917-1.847 1.412l-.034.026zm4.055-4.374zm0 0c.229.188.562.505.856.944a61.39 61.39 0 00-2.004 1.393 5.617 5.617 0 00-.564-.704 35 35 0 011.712-1.633zm2.513-2.03c.182.15.675.597 1.044 1.29-.636.37-1.302.776-1.994 1.222-.243-.372-.55-.775-.894-1.063a32.337 32.337 0 011.844-1.45z" fill="#fff"/></svg>