<svg width="37" height="36" xmlns="http://www.w3.org/2000/svg">
  <path d="M35.967 17.618a16.52 16.52 0 01-3.197 9.772c-.34.466-.702.913-1.086 1.343-3.077 3.438-7.556 5.668-12.576 5.867h-.006a19.17 19.17 0 01-1.44 0h-.006c-5.022-.197-9.501-2.43-12.576-5.868a16.607 16.607 0 01-1.087-1.342 16.533 16.533 0 010-19.546c.34-.465.702-.913 1.087-1.343 3.224-3.6 7.988-5.88 13.302-5.88 5.313 0 10.078 2.28 13.302 5.88.384.43.746.878 1.086 1.343a16.532 16.532 0 013.197 9.774z" fill="none" stroke="#fff" stroke-miterlimit="20"/>
  <path d="M18.381.622v33.991" fill="none" stroke="#fff" stroke-miterlimit="20"/>
  <path d="M.796 17.617h35.17" fill="none" stroke="#fff" stroke-miterlimit="20"/>
  <g>
    <path d="M28.165 17.618v.032c0 3.054-.463 5.92-1.275 8.396-.06.182-.121.362-.185.54-1.604 4.501-4.385 7.604-7.597 8.014h-.006a5.593 5.593 0 01-1.44 0h-.006c-3.212-.408-5.993-3.511-7.597-8.014a20.117 20.117 0 01-.185-.54C9.062 23.569 8.6 20.704 8.6 17.65v-.032c.003-3.069.474-5.945 1.295-8.427.06-.181.123-.36.187-.538C11.81 3.85 14.88.655 18.38.655c3.503 0 6.574 3.195 8.301 7.998.064.178.127.357.187.538.821 2.482 1.294 5.358 1.296 8.427z" fill="none" stroke="#fff" stroke-miterlimit="20"/>
  </g>
  <g>
    <path d="M31.684 28.733c-3.077 3.438-7.556 5.669-12.576 5.867h-.006a5.591 5.591 0 01-1.44 0h-.006c-5.022-.197-9.502-2.43-12.576-5.868 1.307-.813 2.867-1.504 4.615-2.038.12-.037.242-.073.364-.108 2.477-.718 5.312-1.124 8.322-1.124h.034c2.999.002 5.822.409 8.29 1.124.144.041.288.084.429.127 1.72.533 3.258 1.217 4.55 2.02z" fill="none" stroke="#fff" stroke-miterlimit="20"/>
  </g>
  <g>
    <path d="M31.684 6.501c-1.292.803-2.83 1.486-4.55 2.019-.15.046-.3.091-.452.133-2.462.712-5.276 1.117-8.267 1.12h-.034c-3.003 0-5.828-.404-8.3-1.12-.13-.036-.259-.074-.386-.113-1.748-.535-3.308-1.226-4.615-2.039 3.223-3.6 7.988-5.88 13.301-5.88 5.314 0 10.079 2.28 13.303 5.88z" fill="none" stroke="#fff" stroke-miterlimit="20"/>
  </g>
</svg>